{"title":"Orphan - [Thiller] - (2009) - DVDRip x264 - [=Faith=]","uid":11708174,"size":3163679719,"categoryP":"video","categoryS":"movies","magnet":"?xt=urn:btih:cabc5270d34fdf1792906546ff0a6351f4847459&amp;dn=Orphan+-+%5BThiller%5D+-+%282009%29+-+DVDRip+x264+-+%5B%3DFaith%3D%5D&amp;tr=udp%3A%2F%2Ftracker.openbittorrent.com%3A80&amp;tr=udp%3A%2F%2Fopen.demonii.com%3A1337&amp;tr=udp%3A%2F%2Ftracker.coppersurfer.tk%3A6969&amp;tr=udp%3A%2F%2Fexodus.desync.com%3A6969","seeders":1,"leechers":0,"uploader":"Faithwyn","files":4,"time":1424221866,"description":"The Film:\n\nTitle: Orphan\nGenre: Mystery | Thriller\nReleased: 24 July 2009 (USA)\nRuntime: 123 min.\nDirector: Jaume Collet-Serra\nWriters: David Johnson (screenplay) , Alex Mace (story)\nStars: Vera Farmiga, Peter Sarsgaard, Isabelle Fuhrman\nLanguages: English, French, Spanish\nSubtitles: English, French, Spanish\nIMDB Rating: 7.0\n\n\nStoryline:\n\nKate and John Coleman are rebuilding their troubled marriage. Kate had a drinking problem, but is in therapy and is doing well. She has been sober for one year. The couple decide to adopt a child. When they meet the nine-year-old Russian girl, Esther, at the St. Marina Orphanage, they immediately fall in love with the well-educated orphan. Their young son, Daniel, is hostile to his new sister; but their deaf daughter, little Max, is enchanted with her - at first. Eventually, Kate begins to feel that Esther is manipulative and possibly even psychologically disturbed. John refuses to listen to his wife's misgivings, and the wounds in their marriage reopen. Kate calls Sister Abigail at the orphanage, and the nun informs her that Esther has a troubled and mysterious history. Kate delves further into Esther's past and discovers she is not all she pretends to be.\nWritten by Claudio Carvalho, Rio de Janeiro, Brazil\n\n\nGeneral:\n\nComplete name : C:Orphan.m4v\nFormat : MPEG-4\nFormat profile : Base Media / Version 2\nCodec ID : mp42\nFile size : 2.95 GiB\nDuration : 2h 2mn\nOverall bit rate mode : Variable\nOverall bit rate : 3 432 Kbps\nEncoded date : UTC 2015-02-17 18:49:27\nTagged date : UTC 2015-02-17 19:40:16\nWriting application : HandBrake 0.9.9\n\n\nVideo:\n\nID : 1\nFormat : AVC\nFormat/Info : Advanced Video Codec\nFormat profile : &lt;a class=&quot;__cf_email__&quot; href=&quot;/cdn-cgi/l/email-protection&quot; data-cfemail=&quot;531b3a343b131f677d62&quot;&gt;[email&amp;#160;protected]&lt;/a&gt;&lt;script cf-hash='f9e31' type=&quot;text/javascript&quot;&gt;\n/* &lt;![CDATA[ */!function(){try{var t=&quot;currentScript&quot;in document?document.currentScript:function(){for(var t=document.getElementsByTagName(&quot;script&quot;),e=t.length;e--;)if(t[e].getAttribute(&quot;cf-hash&quot;))return t[e]}();if(t&amp;&amp;t.previousSibling){var e,r,n,i,c=t.previousSibling,a=c.getAttribute(&quot;data-cfemail&quot;);if(a){for(e=&quot;&quot;,r=parseInt(a.substr(0,2),16),n=2;a.length-n;n+=2)i=parseInt(a.substr(n,2),16)^r,e+=String.fromCharCode(i);e=document.createTextNode(e),c.parentNode.replaceChild(e,c)}}}catch(u){}}();/* ]]&gt; */&lt;/script&gt;\nFormat settings, CABAC : Yes\nFormat settings, ReFrames : 5 frames\nCodec ID : avc1\nCodec ID/Info : Advanced Video Coding\nDuration : 2h 2mn\nBit rate : 2 270 Kbps\nWidth : 720 pixels\nHeight : 480 pixels\nDisplay aspect ratio : 16:9\nFrame rate mode : Variable\nFrame rate : 23.976 fps\nMinimum frame rate : 23.974 fps\nMaximum frame rate : 23.981 fps\nStandard : NTSC\nColor space : YUV\nChroma subsampling : 4:2:0\nBit depth : 8 bits\nScan type : Progressive\nBits/(Pixel*Frame) : 0.274\nStream size : 1.95 GiB (66%)\nWriting library : x264 core 130 r2273 b3065e6\nEncoding settings : (see text file)\nEncoded date : UTC 2015-02-17 18:49:27\nTagged date : UTC 2015-02-17 19:40:16\nColor primaries : BT.601 NTSC\nTransfer characteristics : BT.709\nMatrix coefficients : BT.601\n\n\nAudio:\n\nID : 2\nFormat : AC-3\nFormat/Info : Audio Coding 3\nMode extension : CM (complete main)\nFormat settings, Endianness : Big\nCodec ID : ac-3\nDuration : 2h 2mn\nBit rate mode : Constant\nBit rate : 384 Kbps\nChannel(s) : 6 channels\nChannel positions : Front: L C R, Side: L R, LFE\nSampling rate : 48.0 KHz\nBit depth : 16 bits\nCompression mode : Lossy\nStream size : 338 MiB (11%)\nLanguage : English\nEncoded date : UTC 2015-02-17 18:49:27\nTagged date : UTC 2015-02-17 19:40:15\n\nAdditional Language and Subtitle info: (see text file)","torrent":{"xt":"urn:btih:cabc5270d34fdf1792906546ff0a6351f4847459","amp;dn":"Orphan+-+%5BThiller%5D+-+%282009%29+-+DVDRip+x264+-+%5B%3DFaith%3D%5D","amp;tr":["udp%3A%2F%2Ftracker.openbittorrent.com%3A80","udp%3A%2F%2Fopen.demonii.com%3A1337","udp%3A%2F%2Ftracker.coppersurfer.tk%3A6969","udp%3A%2F%2Fexodus.desync.com%3A6969"],"infoHash":"cabc5270d34fdf1792906546ff0a6351f4847459","infoHashBuffer":{"type":"Buffer","data":[202,188,82,112,211,79,223,23,146,144,101,70,255,10,99,81,244,132,116,89]},"announce":[],"urlList":[]}}